<?xml version="1.0" standalone="no"?><!DOCTYPE svg PUBLIC "-//W3C//DTD SVG 1.1//EN" "http://www.w3.org/Graphics/SVG/1.1/DTD/svg11.dtd"><svg t="1643900333099" class="icon" viewBox="0 0 1024 1024" version="1.1" xmlns="http://www.w3.org/2000/svg" p-id="8248" xmlns:xlink="http://www.w3.org/1999/xlink" width="200" height="200"><defs><style type="text/css"></style></defs><path d="M497.92 560.192l-81.728 83.2-22.816-22.464 82.368-83.84-78.144-81.28-77.408 78.752-22.816-22.4 78.016-79.424-71.936-74.816-79.264 80.64-22.816-22.4 79.904-81.28L128 175.424V896h692.832l-140.832-146.464-71.808 73.024-22.816-22.4 72.416-73.696-71.936-74.848-73.664 74.944-22.816-22.4 74.304-75.616-65.728-68.352zM96 96l800 832H96V96z m159.424 485.056l191.04 186.912h-191.04v-186.912z m34.56 75.072V736h79.68l-79.68-79.872z" p-id="8249" fill="#8a8a8a"></path></svg>