<?xml version="1.0" standalone="no"?><!DOCTYPE svg PUBLIC "-//W3C//DTD SVG 1.1//EN" "http://www.w3.org/Graphics/SVG/1.1/DTD/svg11.dtd"><svg t="1643900309014" class="icon" viewBox="0 0 1024 1024" version="1.1" xmlns="http://www.w3.org/2000/svg" p-id="8058" xmlns:xlink="http://www.w3.org/1999/xlink" width="200" height="200"><defs><style type="text/css"></style></defs><path d="M160 887.584c3.072 0.544 6.336 0.96 9.76 1.216 41.088 3.424 87.552-13.44 125.056-50.272 33.216-32.64 75.072-49.504 121.184-53.216V736h96v58.496c65.728 16.544 133.888 52.928 194.432 103.04 44.16 36.544 94.08 24.16 157.568-48.096V768h11.104c-24.576-264.768-46.592-436.288-65.408-512H768V195.168a59.968 59.968 0 0 0-17.664 0.032c-29.984 3.936-70.816 24.576-124.32 61.472-54.08 37.312-100.064 22.528-149.376-28.384-5.12-5.28-10.336-10.912-16.8-18.144l-16.192-18.24c-24-26.848-42.336-43.84-59.648-53.44V160H288v-24.32c-22.88 7.52-44.16 20.576-64 39.36V256H189.184c-33.824 270.592-55.2 452.832-63.872 544H160v87.584z m224-784.192c92.032 35.2 134.432 188.608 223.84 126.944C666.208 190.08 723.808 158.72 768 162.912V160h96v96h-21.408c19.104 82.112 40.64 252.8 64.64 512H960v96h-66.368c-76.832 89.728-146.016 109.12-207.584 58.176-47.2-39.04-110.4-75.648-174.048-93.696V832h-96v-14.4c-36.928 3.2-71.04 16.512-98.752 43.744-76.032 74.688-175.04 71.232-212.8 34.656H64v-96h29.184c8.544-91.104 29.824-272.416 63.776-544H128V160h65.76C222.08 130.752 253.44 111.52 288 102.336V64h96v39.36zM320 96v32h32V96h-32z m480 96v32h32V192h-32z m96 608v32h32v-32h-32z m-448-32v32h32v-32h-32zM96 832v32h32v-32H96zM160 192v32h32V192H160z" p-id="8059" fill="#8a8a8a"></path></svg>