<?xml version="1.0" standalone="no"?><!DOCTYPE svg PUBLIC "-//W3C//DTD SVG 1.1//EN" "http://www.w3.org/Graphics/SVG/1.1/DTD/svg11.dtd"><svg t="1643900188040" class="icon" viewBox="0 0 1024 1024" version="1.1" xmlns="http://www.w3.org/2000/svg" p-id="5868" xmlns:xlink="http://www.w3.org/1999/xlink" width="200" height="200"><defs><style type="text/css"></style></defs><path d="M972.8 0H51.2a51.2 51.2 0 0 0-51.2 51.2v716.8a51.2 51.2 0 0 0 51.2 51.2h307.2a51.2 51.2 0 0 0 0-102.4H102.4V102.4h819.2v358.4a51.2 51.2 0 0 0 102.4 0V51.2a51.2 51.2 0 0 0-51.2-51.2z" fill="#8a8a8a" p-id="5869"></path><path d="M532.992 375.296a25.6 25.6 0 0 0-40.96 23.552l81.92 603.136a25.6 25.6 0 0 0 17.92 20.992h7.68a25.6 25.6 0 0 0 18.944-8.704l120.32-134.144 67.072 115.712a51.2 51.2 0 1 0 88.576-51.2l-67.072-116.224 176.128-37.376a25.6 25.6 0 0 0 10.24-45.056z" fill="#8a8a8a" p-id="5870"></path></svg>